<?xml version="1.0" encoding="UTF-8" standalone="no"?>
<!-- Created with Inkscape (http://www.inkscape.org/) -->

<svg
   width="66.250557mm"
   height="66.250557mm"
   viewBox="0 0 66.250557 66.250557"
   version="1.1"
   id="svg48"
   inkscape:version="1.2 (dc2aedaf03, 2022-05-15)"
   sodipodi:docname="Viar-Logo.svg"
   xmlns:inkscape="http://www.inkscape.org/namespaces/inkscape"
   xmlns:sodipodi="http://sodipodi.sourceforge.net/DTD/sodipodi-0.dtd"
   xmlns="http://www.w3.org/2000/svg"
   xmlns:svg="http://www.w3.org/2000/svg">
  <sodipodi:namedview
     id="namedview50"
     pagecolor="#ffffff"
     bordercolor="#666666"
     borderopacity="1.0"
     inkscape:pageshadow="2"
     inkscape:pageopacity="0.0"
     inkscape:pagecheckerboard="0"
     inkscape:document-units="mm"
     showgrid="false"
     inkscape:zoom="1.2497775"
     inkscape:cx="140.02492"
     inkscape:cy="137.6245"
     inkscape:window-width="1366"
     inkscape:window-height="719"
     inkscape:window-x="0"
     inkscape:window-y="26"
     inkscape:window-maximized="1"
     inkscape:current-layer="layer1"
     inkscape:showpageshadow="2"
     inkscape:deskcolor="#d1d1d1" />
  <defs
     id="defs45" />
  <g
     inkscape:label="Layer 1"
     inkscape:groupmode="layer"
     id="layer1"
     transform="translate(-35.085827,-84.39632)">
    <g
       id="g968">
      <circle
         style="opacity:1;fill:#d62f00;fill-opacity:1;stroke-width:0.375947"
         id="circle963"
         cx="68.211105"
         cy="117.5216"
         r="33.125278" />
      <circle
         style="opacity:0.579371;fill:#d62f00;fill-opacity:1;stroke-width:0.246193"
         id="path231"
         cx="68.211105"
         cy="117.5216"
         r="21.692411" />
      <path
         id="path35292"
         style="color:#000000;opacity:0.916162;fill:#ffffff;fill-opacity:1;stroke-width:0.762877;stroke-linecap:round;stroke-linejoin:round"
         d="M 68.197918,87.277339 A 1.5139852,1.5139927 0 0 0 67.2774,87.590358 C 60.689599,92.651062 56.826139,100.48874 56.825246,108.79596 a 1.5139852,1.5139927 0 0 0 0,0.002 c 0,0.36409 0.0103,0.72675 0.02525,1.08886 0.978687,-0.43712 1.981894,-0.81949 3.003226,-1.14327 0.01678,-6.92339 3.136202,-13.3955 8.362359,-17.875155 1.424276,1.218286 2.72492,2.571089 3.840963,4.067661 1.484345,0.257146 2.942752,0.661009 4.348719,1.204371 -0.129261,-0.240651 -0.261735,-0.48008 -0.398565,-0.717104 a 1.5139852,1.5139927 0 0 0 0,-4.04e-4 1.5139852,1.5139927 0 0 0 0,-4.04e-4 1.5139852,1.5139927 0 0 0 0,-4.03e-4 C 74.247722,92.384107 71.906651,89.723028 69.118854,87.589167 A 1.5139852,1.5139927 0 0 0 68.19794,87.277715 Z m 0.0103,8.542955 c -1.040732,0 -2.06404,0.07548 -3.065919,0.218008 -0.667761,0.952321 -1.262698,1.955272 -1.777564,2.998116 1.546153,-0.403855 3.169159,-0.619335 4.843483,-0.619335 9.61926,0 17.549229,7.095847 18.860233,16.347907 0.998339,0.91606 1.928881,1.90652 2.78444,2.95869 0,-0.0844 0.0061,-0.1677 0.0061,-0.25231 0,-11.94216 -9.708868,-21.651076 -21.650975,-21.651076 z m -10.667019,2.81401 c -6.554638,3.725036 -10.983955,10.771236 -10.983955,18.837066 0,5.22541 1.858887,10.0233 4.950316,13.76728 1.157193,0.0788 2.319459,0.0618 3.474714,-0.0469 -3.592647,-3.46367 -5.828258,-8.32506 -5.828258,-13.72037 0,-6.03945 2.797264,-11.41356 7.168625,-14.90227 0.309797,-1.3388 0.717234,-2.654885 1.218558,-3.934808 z m 17.733151,2.453686 c 0.848899,2.47026 1.288614,5.07345 1.288736,7.7064 -0.0023,3.12095 -0.642793,6.14705 -1.816219,8.94388 l -0.0402,-0.0118 c -0.384475,0.95737 -0.835739,1.88261 -1.33682,2.77812 -1.165752,1.99915 -2.622641,3.83802 -4.337695,5.44983 0.0267,0.0229 0.05477,0.0442 0.0816,0.0671 0,6e-4 -0.0023,0.002 -0.0023,0.002 0.229321,0.19491 0.462769,0.38537 0.700542,0.57046 0.285873,0.22423 0.578109,0.44127 0.875966,0.65047 0.0807,0.0567 0.165255,0.10803 0.246799,0.16361 0.217992,0.14859 0.435457,0.29773 0.65914,0.43838 0,0 0,-4.1e-4 0,-4.1e-4 0.0031,0.002 0.0053,0.004 0.0079,0.005 1.263828,-1.24427 2.392748,-2.61173 3.381681,-4.07357 0.0023,-0.002 0.0023,-0.004 0.0038,-0.006 0.210059,-0.3107 0.411435,-0.62688 0.608296,-0.94617 0.04417,-0.0716 0.0901,-0.14208 0.13364,-0.21406 0.167269,-0.2771 0.326908,-0.55855 0.484107,-0.84167 0.0669,-0.12028 0.134854,-0.23986 0.199866,-0.36112 0.134182,-0.25069 0.262094,-0.50464 0.388327,-0.75969 0.07935,-0.16 0.158831,-0.31979 0.234943,-0.48135 0.106719,-0.22689 0.20867,-0.45591 0.309088,-0.68596 0.08544,-0.19537 0.169572,-0.39116 0.25033,-0.58858 0.04051,-0.0991 0.08607,-0.19567 0.125364,-0.29528 l -0.0087,-0.002 c 1.218352,-3.08255 1.875464,-6.39903 1.877722,-9.79818 a 1.5139852,1.5139927 0 0 0 0,-4e-4 1.5139852,1.5139927 0 0 0 0,-4.1e-4 1.5139852,1.5139927 0 0 0 0,-4e-4 1.5139852,1.5139927 0 0 0 0,-4.1e-4 c 2.3e-5,-1.86698 -0.198699,-3.72036 -0.581876,-5.53222 -1.15106,-0.87298 -2.40809,-1.60373 -3.734527,-2.17575 z m -6.82842,7.57591 c -0.06973,-6.1e-4 -0.139553,0.005 -0.209333,0.005 -0.06485,-6e-5 -0.12991,-0.002 -0.19474,-0.002 v 0 c -0.230564,0.002 -0.460228,0.013 -0.690289,0.0205 -0.276787,0.009 -0.553254,0.021 -0.829842,0.0386 -0.330135,0.0211 -0.659828,0.0452 -0.98833,0.0785 -0.209837,0.0212 -0.418934,0.049 -0.628405,0.0753 -0.260705,0.0327 -0.520816,0.0681 -0.780171,0.10842 -0.629915,0.0979 -1.258358,0.21051 -1.882437,0.35362 v 0.005 c -4.31899,0.99057 -8.372331,3.04248 -11.74681,6.01948 -0.06088,0.52588 -0.100074,1.05511 -0.11511,1.58757 -0.0299,0.88009 0.0103,1.77883 0.115514,2.66894 3.290167,-3.69678 7.606288,-6.20124 12.282159,-7.30035 l 0.01694,0.0946 c 2.256971,-0.56522 4.562073,-0.81829 6.858378,-0.68123 1.781219,0.12297 3.563505,0.48552 5.323645,1.02973 0.0053,-0.0287 0.0091,-0.0576 0.01411,-0.0863 0,1.2e-4 0,1.9e-4 0.0023,3.9e-4 0.02144,-0.11952 0.03845,-0.23968 0.05798,-0.35953 0.01976,-0.12194 0.04135,-0.2436 0.05912,-0.36584 0.01877,-0.12903 0.03395,-0.2586 0.05043,-0.38793 0.01655,-0.12931 0.03471,-0.25833 0.0489,-0.38792 0.01854,-0.16968 0.03265,-0.33967 0.0473,-0.50974 0.0076,-0.0841 0.01655,-0.16808 0.02289,-0.2523 0.01961,-0.26025 0.03502,-0.52094 0.04531,-0.78177 -0.10617,-0.0292 -0.213674,-0.052 -0.320103,-0.08 -0.245143,-0.0647 -0.490606,-0.12572 -0.736436,-0.18332 -0.147624,-0.0345 -0.295012,-0.0696 -0.443109,-0.1017 -0.324788,-0.0703 -0.650101,-0.1344 -0.975712,-0.19239 -0.153789,-0.0274 -0.307852,-0.0521 -0.462022,-0.0768 -0.247362,-0.0396 -0.494763,-0.0752 -0.742347,-0.10764 -0.225095,-0.0296 -0.450357,-0.0559 -0.6761,-0.0796 -0.233776,-0.0246 -0.467552,-0.0464 -0.701328,-0.0646 -0.101852,-0.008 -0.203177,-0.0214 -0.305128,-0.028 -0.05378,-0.004 -0.107802,-0.003 -0.161638,-0.006 -0.28817,-0.0173 -0.576308,-0.0309 -0.864134,-0.0386 -0.08328,-0.002 -0.166338,-7.7e-4 -0.24956,-0.002 -0.08048,-0.002 -0.160753,-0.008 -0.241267,-0.009 z m 12.196236,3.06869 c -0.115858,1.06115 -0.291869,2.11587 -0.527484,3.15737 5.984572,3.47652 10.028704,9.41293 11.294614,16.17682 -1.918047,0.6777 -3.899796,1.1543 -5.918139,1.34669 -0.972287,1.13135 -2.052864,2.16901 -3.228328,3.08799 0.434276,0.0213 0.869207,0.0355 1.305275,0.0355 a 1.5139852,1.5139927 0 0 0 0.0031,0 c 3.510698,-0.005 6.985572,-0.70143 10.22744,-2.04881 a 1.5139852,1.5139927 0 0 0 0.919343,-1.59584 c -1.088793,-8.23556 -5.94503,-15.50032 -13.13883,-19.6547 a 1.5139852,1.5139927 0 0 0 0,-4.1e-4 1.5139852,1.5139927 0 0 0 0,-4.1e-4 1.5139852,1.5139927 0 0 0 0,-4e-4 c -0.308134,-0.17764 -0.622752,-0.33933 -0.936272,-0.50383 z M 60.61184,114.2249 c -0.03242,0.0117 -0.06423,0.0249 -0.09658,0.0367 -1.68e-4,-6e-4 0,-0.002 0,-0.002 -0.146015,0.0532 -0.290313,0.11098 -0.435244,0.16716 -0.08059,0.0313 -0.161799,0.0609 -0.242046,0.093 -0.165842,0.0664 -0.330097,0.13665 -0.494359,0.20698 -0.07707,0.0329 -0.154712,0.0643 -0.231419,0.0982 -0.17534,0.0773 -0.348963,0.1587 -0.52235,0.24048 -0.06431,0.0304 -0.129506,0.059 -0.193572,0.0899 -0.237972,0.11496 -0.474174,0.23357 -0.708026,0.35677 0.197646,0.75956 0.438204,1.50514 0.700947,2.24198 0.04509,0.12692 0.08782,0.25473 0.134808,0.38084 0.100859,0.26989 0.209089,0.53633 0.318531,0.80265 0.0753,0.18361 0.1506,0.36705 0.22984,0.54877 0.100761,0.23046 0.205435,0.45886 0.312634,0.68635 0.10234,0.21771 0.208083,0.43342 0.316175,0.64811 0.09967,0.19757 0.199782,0.39471 0.304342,0.58976 0.135899,0.25411 0.278236,0.50435 0.422214,0.75377 0.08849,0.15304 0.174554,0.30719 0.266092,0.4585 0.201582,0.33381 0.41209,0.66175 0.628023,0.98637 0.04486,0.0674 0.08657,0.13647 0.132061,0.20342 0.557946,0.82255 1.163639,1.61232 1.810689,2.36891 0.0076,0.009 0.01411,0.018 0.02166,0.0268 l 0.0023,-7.6e-4 c 1.940378,2.26295 4.263628,4.21545 6.907668,5.74432 a 1.5139852,1.5139927 0 0 0 0.0023,0.002 c 1.470476,0.84903 3.013174,1.55045 4.604573,2.10282 1.344868,-0.52948 2.624671,-1.22331 3.797991,-2.0768 -2.410409,-0.5168 -4.736368,-1.40547 -6.889138,-2.64844 -2.103686,-1.21642 -3.966243,-2.73791 -5.555064,-4.49106 l 0.07688,-0.0367 c -1.163715,-1.24985 -2.184605,-2.61302 -3.051325,-4.06293 -1.157856,-2.01843 -2.027971,-4.21133 -2.568789,-6.51542 z m -14.986168,6.84855 c -0.198417,0.31269 -0.393454,0.62882 -0.580305,0.95207 a 1.5139852,1.5139927 0 0 0 -0.0023,0.003 c -1.749269,3.03926 -2.883981,6.39248 -3.339121,9.86954 a 1.5139852,1.5139927 0 0 0 0.920915,1.59426 c 3.238825,1.3444 6.710083,2.03976 10.216807,2.04448 a 1.5139852,1.5139927 0 0 0 0.0031,0 c 4.694554,-9e-5 9.30545,-1.23618 13.371028,-3.58355 0.309545,-0.17876 0.61304,-0.36537 0.913804,-0.55547 -0.863142,-0.63182 -1.689658,-1.31384 -2.475741,-2.03974 -3.593296,2.06356 -7.663595,3.15074 -11.807901,3.15108 -2.687242,-0.004 -5.326239,-0.55097 -7.853811,-1.44525 0.364915,-1.96633 0.928521,-3.89021 1.747225,-5.70766 -0.516323,-1.38685 -0.886768,-2.82337 -1.114106,-4.28291 z m 40.957505,1.44801 c -2.208948,8.07945 -9.586083,14.00421 -18.374959,14.00421 -2.32856,0 -4.557694,-0.41691 -6.618682,-1.17834 -1.30436,0.42702 -2.640615,0.75645 -3.993921,0.98675 3.138141,1.77202 6.757534,2.78837 10.612603,2.78837 9.107347,0 16.91051,-5.64933 20.104424,-13.62692 -0.500844,-1.03304 -1.079082,-2.02841 -1.729465,-2.97407 z"
         inkscape:export-filename="/home/vishal/Documents/viar-logo1.png"
         inkscape:export-xdpi="36.533211"
         inkscape:export-ydpi="36.533211" />
    </g>
  </g>
</svg>
